<svg
  aria-hidden="true"
  focusable="false"
  data-prefix="fas"
  data-icon="chevron-left"
  class="svg-inline--fa fa-chevron-left fa-w-10"
  role="img"
  xmlns="http://www.w3.org/2000/svg"
  viewBox="0 0 350 100"
  width="350"
  height="100"
>
  <path
    fill="#ff7010"
    d="M50,71.6c-11.9,0-21.6-9.7-21.6-21.6c0-11.9,9.7-21.6,21.6-21.6c11.9,0,21.6,9.7,21.6,21.6C71.6,61.9,61.9,71.6,50,71.6  L50,71.6z M94.7,49.9c0,0-6.2,7.3-13.2,7.3c-4,0-7.3-3.1-7.3-7.2s3.3-7.3,7.3-7.3C88.5,42.8,94.7,49.9,94.7,49.9L94.7,49.9z   M85.4,49.9c0,0-3.1-3.6-6.6-3.6c-2,0-3.6,1.6-3.6,3.6c0,2,1.6,3.6,3.6,3.6C82.3,53.5,85.4,49.9,85.4,49.9L85.4,49.9z M5.3,50.1  c0,0,6.2-7.3,13.2-7.3c4,0,7.3,3.1,7.3,7.2s-3.3,7.3-7.3,7.3C11.5,57.2,5.3,50.1,5.3,50.1L5.3,50.1z M14.6,50.1c0,0,3.1,3.6,6.6,3.6  c2,0,3.6-1.6,3.6-3.6c0-2-1.6-3.6-3.6-3.6C17.7,46.5,14.6,50.1,14.6,50.1L14.6,50.1z M49.9,5.3c0,0,7.3,6.2,7.3,13.2  c0,4-3.1,7.3-7.2,7.3c-4,0-7.3-3.3-7.3-7.3C42.8,11.5,49.9,5.3,49.9,5.3L49.9,5.3z M49.9,14.6c0,0-3.6,3.1-3.6,6.6  c0,2,1.6,3.6,3.6,3.6c2,0,3.6-1.6,3.6-3.6C53.5,17.7,49.9,14.6,49.9,14.6L49.9,14.6z M50.1,94.7c0,0-7.3-6.2-7.3-13.2  c0-4,3.1-7.3,7.2-7.3c4,0,7.3,3.3,7.3,7.3C57.2,88.5,50.1,94.7,50.1,94.7L50.1,94.7z M50.1,85.4c0,0,3.6-3.1,3.6-6.6  c0-2-1.6-3.6-3.6-3.6c-2,0-3.6,1.6-3.6,3.6C46.5,82.3,50.1,85.4,50.1,85.4L50.1,85.4z M81.6,81.6c0,0-9.5,0.8-14.5-4.2  c-2.8-2.8-2.9-7.4-0.1-10.2c2.8-2.8,7.5-2.8,10.3,0C82.4,72.1,81.6,81.6,81.6,81.6L81.6,81.6z M75.1,75c0,0,0.4-4.7-2.1-7.2  c-1.4-1.4-3.7-1.4-5.2,0c-1.4,1.4-1.4,3.7,0,5.1C70.4,75.4,75.1,75,75.1,75L75.1,75z M18.4,18.4c0,0,9.5-0.8,14.5,4.2  c2.8,2.8,2.9,7.4,0.1,10.2c-2.8,2.8-7.4,2.8-10.3,0C17.6,27.9,18.4,18.4,18.4,18.4L18.4,18.4z M24.9,25c0,0-0.4,4.7,2.1,7.2  c1.4,1.4,3.7,1.4,5.2,0c1.4-1.4,1.4-3.7,0-5.1C29.6,24.6,24.9,25,24.9,25L24.9,25z M81.6,18.4c0,0,0.8,9.5-4.2,14.5  c-2.8,2.8-7.4,2.9-10.2,0.1c-2.8-2.8-2.8-7.4,0-10.3C72.1,17.6,81.6,18.4,81.6,18.4L81.6,18.4z M75,24.9c0,0-4.7-0.4-7.2,2.1  c-1.4,1.4-1.4,3.7,0,5.2c1.4,1.4,3.7,1.4,5.1,0C75.4,29.6,75,24.9,75,24.9L75,24.9z M18.4,81.6c0,0-0.8-9.5,4.2-14.5  c2.8-2.8,7.4-2.9,10.2-0.1c2.8,2.8,2.8,7.5,0,10.3C27.9,82.4,18.4,81.6,18.4,81.6L18.4,81.6z M25,75.1c0,0,4.7,0.4,7.2-2.1  c1.4-1.4,1.4-3.7,0-5.1c-1.4-1.4-3.7-1.4-5.1,0C24.6,70.4,25,75.1,25,75.1L25,75.1z M82.7,36.4c0,0-1.6,5-5.2,6.5  c-2,0.8-4.3-0.1-5.2-2.1c-0.8-2,0.1-4.4,2.2-5.2C78.1,34.1,82.7,36.4,82.7,36.4L82.7,36.4z M78,38.3c0,0-2.3-1.2-4.1-0.4  c-1,0.4-1.5,1.6-1.1,2.6c0.4,1,1.6,1.5,2.6,1.1C77.2,40.8,78,38.3,78,38.3L78,38.3z M17.3,63.6c0,0,1.6-5,5.2-6.5  c2-0.8,4.3,0.1,5.2,2.1c0.8,2-0.1,4.4-2.2,5.2C21.9,65.9,17.3,63.6,17.3,63.6L17.3,63.6z M22,61.7c0,0,2.3,1.2,4.1,0.4  c1-0.4,1.5-1.6,1.1-2.6c-0.4-1-1.6-1.5-2.6-1.1C22.8,59.2,22,61.7,22,61.7L22,61.7z M36.4,17.3c0,0,5,1.6,6.5,5.2  c0.8,2-0.1,4.3-2.1,5.2c-2,0.8-4.4-0.1-5.2-2.2C34.1,21.9,36.4,17.3,36.4,17.3L36.4,17.3z M38.3,22c0,0-1.2,2.3-0.4,4.1  c0.4,1,1.6,1.5,2.6,1.1c1-0.4,1.5-1.6,1-2.6C40.8,22.8,38.3,22,38.3,22L38.3,22z M63.6,82.7c0,0-5-1.6-6.5-5.2  c-0.8-2,0.1-4.3,2.1-5.2c2-0.8,4.4,0.1,5.2,2.2C65.9,78.1,63.6,82.7,63.6,82.7L63.6,82.7z M61.7,78c0,0,1.2-2.3,0.4-4.1  c-0.4-1-1.6-1.5-2.6-1.1c-1,0.4-1.5,1.6-1.1,2.6C59.2,77.2,61.7,78,61.7,78L61.7,78z M63.5,17.3c0,0,2.4,4.6,0.9,8.2  c-0.8,2-3.1,3-5.2,2.2c-2-0.8-3-3.2-2.2-5.2C58.6,18.9,63.5,17.3,63.5,17.3L63.5,17.3z M61.6,21.9c0,0-2.5,0.8-3.2,2.6  c-0.4,1,0.1,2.2,1.1,2.6c1,0.4,2.2-0.1,2.6-1.1C62.8,24.3,61.6,21.9,61.6,21.9L61.6,21.9z M36.5,82.7c0,0-2.4-4.7-0.9-8.2  c0.8-2,3.1-3,5.2-2.2c2,0.8,3,3.2,2.2,5.2C41.4,81.1,36.5,82.7,36.5,82.7L36.5,82.7z M38.4,78.1c0,0,2.5-0.8,3.2-2.6  c0.4-1-0.1-2.2-1.1-2.6c-1-0.4-2.2,0.1-2.6,1.1C37.2,75.7,38.4,78.1,38.4,78.1L38.4,78.1z M17.3,36.5c0,0,4.7-2.4,8.2-0.9  c2,0.8,3,3.1,2.2,5.2c-0.8,2-3.2,3-5.2,2.2C18.9,41.4,17.3,36.5,17.3,36.5L17.3,36.5z M21.9,38.4c0,0,0.8,2.5,2.6,3.2  c1,0.4,2.2-0.1,2.6-1.1c0.4-1-0.1-2.2-1.1-2.6C24.3,37.2,21.9,38.4,21.9,38.4L21.9,38.4z M82.7,63.5c0,0-4.7,2.4-8.2,0.9  c-2-0.8-3-3.1-2.2-5.2c0.8-2,3.2-3,5.2-2.2C81.1,58.6,82.7,63.5,82.7,63.5L82.7,63.5z M78.1,61.6c0,0-0.8-2.5-2.6-3.2  c-1-0.4-2.2,0.1-2.6,1.1c-0.4,1,0.1,2.2,1.1,2.6C75.7,62.8,78.1,61.6,78.1,61.6L78.1,61.6z"
  ></path>

  <g transform="matrix(1,0,0,1,355,23)" fill="#ff7010">
    <rect
      y="0"
      x="-235"
      width="3"
      height="54"
    ></rect>
  </g>

  <path
    transform="matrix(1.8821757573803763,0,0,1.8821757573803763,135.13909310905433,25.631659394713175)"
    fill="#ff7010"
    d="M9.02 11.64 l-0.02 -1.48 l0 -3.82 q0.62 -0.12 1.61 -0.12 t1.59 0.12 l0 13.66 q-0.64 0.12 -1.6 0.12 t-1.6 -0.12 l0 -4.24 l0.02 -1.48 l-1 0.02 l-2.32 0 l-1 -0.02 l0.02 1.48 l0 4.24 q-0.62 0.12 -1.6 0.12 t-1.6 -0.12 l0 -13.66 q0.62 -0.12 1.6 -0.12 t1.6 0.12 l0 3.82 l-0.02 1.48 l1 -0.02 l2.32 0 z M18.560000000000002 17.14 q-0.54 0 -0.8 -0.02 l-0.86 2.9 q-0.48 0.12 -1.34 0.12 q-0.96 0 -1.56 -0.22 l-0.1 -0.16 l4.4 -13.42 q0.78 -0.12 1.82 -0.12 q1.18 0 1.88 0.14 l4.32 13.44 q-0.7 0.38 -1.58 0.38 q-1.04 0 -1.46 -0.36 t-0.72 -1.38 l-0.38 -1.32 q-0.26 0.02 -0.78 0.02 l-2.84 0 z M18.5 14.620000000000001 l0.8 -0.02 l1.46 0 q0.1 0 0.35 0.01 t0.37 0.01 l-0.34 -1.24 q-0.48 -1.68 -1.1 -4.12 l-0.12 0 q-0.16 0.86 -0.96 3.82 z M37.8 10.56 q0 0.66 -0.2 1.25 t-0.53 1.06 t-0.78 0.82 t-0.93 0.53 q1.04 0.38 1.54 1.84 l0.6 1.7 q0.34 1 1 1.48 q-0.3 0.4 -0.9 0.67 t-1.32 0.27 t-1.12 -0.41 t-0.74 -1.43 l-0.72 -2.1 q-0.22 -0.6 -0.59 -0.92 t-1.11 -0.32 l-0.82 0 l0 5 q-0.64 0.12 -1.6 0.12 t-1.58 -0.12 l0 -13.56 l0.14 -0.14 q1.74 -0.04 2.93 -0.06 t1.87 -0.02 q1.1 0 2 0.27 t1.53 0.81 t0.98 1.36 t0.35 1.9 z M31.18 8.62 l0 3.92 q0.9 0 1.54 -0.03 t1.03 -0.24 t0.59 -0.59 t0.2 -1.1 q0 -1.94 -1.88 -1.94 l-0.83 0 t-0.65 -0.02 z M40.34 20 l0 -13.66 q0.62 -0.12 1.6 -0.12 t1.62 0.12 l0 13.66 q-0.64 0.12 -1.62 0.12 t-1.6 -0.12 z M51.92 12.24 l3.14 -0.02 q2.12 0 2.12 2 l0 5.26 q-2.58 0.82 -5.42 0.82 q-1.44 0 -2.55 -0.48 t-1.86 -1.38 t-1.13 -2.21 t-0.38 -2.97 q0 -1.82 0.53 -3.17 t1.42 -2.25 t2.05 -1.35 t2.42 -0.45 q2.6 0 4.88 1.44 q-0.02 0.32 -0.15 0.65 t-0.32 0.64 t-0.44 0.56 t-0.51 0.43 q-1.66 -1.08 -3.36 -1.08 q-3.26 0 -3.26 4.56 q0 4.54 3.34 4.54 q0.46 0 0.89 -0.04 t0.85 -0.12 l0 -1.34 q0 -0.46 0.01 -0.8 t0.03 -0.58 l-1 0 q-0.86 0 -1.19 -0.33 t-0.33 -1.03 q0 -0.6 0.22 -1.3 z M70.34 6.34 l0 8.62 q0 2.56 -1.4 3.95 t-4 1.39 t-4.01 -1.39 t-1.41 -3.95 l0 -8.62 l0.14 -0.14 l1.18 0 q1.9 0 1.9 2.04 l0 6.76 q0 1.4 0.5 2.08 t1.7 0.68 t1.7 -0.68 t0.5 -2.08 l0 -8.66 q0.62 -0.12 1.6 -0.12 q0.96 0 1.6 0.12 z M82.97999999999999 10.56 q0 0.66 -0.2 1.25 t-0.53 1.06 t-0.78 0.82 t-0.93 0.53 q1.04 0.38 1.54 1.84 l0.6 1.7 q0.34 1 1 1.48 q-0.3 0.4 -0.9 0.67 t-1.32 0.27 t-1.12 -0.41 t-0.74 -1.43 l-0.72 -2.1 q-0.22 -0.6 -0.59 -0.92 t-1.11 -0.32 l-0.82 0 l0 5 q-0.64 0.12 -1.6 0.12 t-1.58 -0.12 l0 -13.56 l0.14 -0.14 q1.74 -0.04 2.93 -0.06 t1.87 -0.02 q1.1 0 2 0.27 t1.53 0.81 t0.98 1.36 t0.35 1.9 z M76.36 8.62 l0 3.92 q0.9 0 1.54 -0.03 t1.03 -0.24 t0.59 -0.59 t0.2 -1.1 q0 -1.94 -1.88 -1.94 l-0.83 0 t-0.65 -0.02 z M95.83999999999999 6.34 l0 8.62 q0 2.56 -1.4 3.95 t-4 1.39 t-4.01 -1.39 t-1.41 -3.95 l0 -8.62 l0.14 -0.14 l1.18 0 q1.9 0 1.9 2.04 l0 6.76 q0 1.4 0.5 2.08 t1.7 0.68 t1.7 -0.68 t0.5 -2.08 l0 -8.66 q0.62 -0.12 1.6 -0.12 q0.96 0 1.6 0.12 z M97.46 18.82 q0.06 -0.66 0.41 -1.32 t0.83 -1.08 q2.14 1.3 4.06 1.3 q0.84 0 1.23 -0.38 t0.39 -0.94 q0 -0.94 -1.26 -1.48 l-2.36 -1 q-1.38 -0.62 -2.12 -1.49 t-0.74 -2.21 q0 -0.92 0.37 -1.68 t1.04 -1.32 t1.59 -0.87 t2.04 -0.31 q2.24 0 4.52 1.14 q-0.1 1.54 -1.08 2.4 q-2.04 -0.98 -3.6 -0.98 q-0.8 0 -1.2 0.36 t-0.4 0.82 q0 0.78 1.18 1.26 l2.4 1.02 q1.52 0.64 2.27 1.64 t0.75 2.32 q0 0.94 -0.34 1.72 t-1.01 1.35 t-1.67 0.89 t-2.34 0.32 q-2.6 0 -4.96 -1.48 z"
  ></path>
</svg>
